# xmcd
#
# Track frame offsets:
#	150
#	16655
#	36995
#	54157
#	78445
#	98020
#	124060
#	135010
#	164537
#	180967
#	195934
#
# Disc length: 2909 seconds
#
# Revision: 0
# Processed by: cddbd v1.4PL0 Copyright (c) Steve Scherf et al.
# Submitted via: dBpowerAMP V4.0
#
DISCID=730b5b0b
DTITLE=Simple Enough - Stories Untold
DYEAR=1997
DGENRE=Blues
TTITLE0='Coustic Blues
TTITLE1=Love to Love You
TTITLE2=Rock Me
TTITLE3=Windward Slide
TTITLE4=Stone Cold Heart
TTITLE5=Kailua Afternoon
TTITLE6=Seems to Me
TTITLE7=Sado no Mado: The Window at Sado Island
TTITLE8=Wrap Your Arms Around Me
TTITLE9=Wild Blues Yonder
TTITLE10=Okimba
EXTD=
EXTT0=
EXTT1=
EXTT2=
EXTT3=
EXTT4=
EXTT5=
EXTT6=
EXTT7=
EXTT8=
EXTT9=
EXTT10=
PLAYORDER=
